<svg xmlns="http://www.w3.org/2000/svg" viewBox="0 0 64 64" fill="none">
    <defs>
        <linearGradient id="gradient" x1="0%" y1="0%" x2="100%" y2="100%">
            <stop offset="0%" style="stop-color:#06b6d4;stop-opacity:1" />
            <stop offset="100%" style="stop-color:#a855f7;stop-opacity:1" />
        </linearGradient>
    </defs>

    <!-- Background circle -->
    <circle cx="32" cy="32" r="30" fill="url(#gradient)" />

    <!-- Refund arrow (clockwise) -->
    <path d="M 32 12 A 16 16 0 1 1 20 24" stroke="white" stroke-width="4" stroke-linecap="round"
        fill="none" />
    <path d="M 20 24 L 20 16 L 12 24 Z" fill="white" />

    <!-- Dollar sign -->
    <path d="M 30 28 L 34 28 C 36 28 37 29 37 31 C 37 33 36 34 34 34 L 30 34" stroke="white"
        stroke-width="2.5" stroke-linecap="round" fill="none" />
    <path d="M 30 34 L 35 34 C 37 34 38 35 38 37 C 38 39 37 40 35 40 L 30 40" stroke="white"
        stroke-width="2.5" stroke-linecap="round" fill="none" />
    <line x1="32" y1="26" x2="32" y2="42" stroke="white" stroke-width="2.5" stroke-linecap="round" />
</svg>